<svg version="1.2" xmlns="http://www.w3.org/2000/svg" viewBox="0 0 200 25" width="200" height="25">
	<title>brightspot-logo-200px-svg</title>
	<defs>
		<linearGradient id="g1" x1="294.7" y1="106" x2="742.4" y2="592.1" gradientUnits="userSpaceOnUse">
			<stop offset="0" stop-color="#ff203c"/>
			<stop offset=".5" stop-color="#db22b0"/>
			<stop offset="1" stop-color="#086cef"/>
		</linearGradient>
	</defs>
	<style>
		.s0 { fill: #958f8f } 
		.s1 { fill: url(#g1) } 
		.s2 { fill: #fe1f3c } 
	</style>
	<g id="Foundation">
		<g id="Dropdown-Menus-REVISED">
			<g id="header-1440-copy-3">
				<g id="Brightspot-grey-logo">
					<path id="Fill-1" fill-rule="evenodd" class="s0" d="m9.9 24.7h-9.8v-24.3h9.5c4.5 0 7.3 2.6 7.3 6.7 0 2.6-1.6 4.5-3.3 5.1 1.9 0.8 3.7 2.6 3.7 5.7 0 4.4-3.1 6.8-7.4 6.8zm-0.7-21h-5.4v7h5.4c2.4 0 4-1.2 4-3.5 0-2.3-1.6-3.5-4-3.5zm0.4 10.3h-5.8v7.4h5.8c2.6 0 4-1.6 4-3.7 0-2.2-1.4-3.7-4-3.7z"/>
					<path id="Fill-2" fill-rule="evenodd" class="s0" d="m35 24.7l-5.1-10.2h-4.6v10.2h-3.7v-24.3h9.4c4.6 0 7.6 3 7.6 7.1 0 3.5-2.2 5.7-4.9 6.5l5.6 10.7zm-4.3-21h-5.4v7.6h5.4c2.5 0 4.2-1.4 4.2-3.8 0-2.3-1.7-3.8-4.2-3.8z"/>
					<path id="Fill-3" class="s0" d="m42.8 0.4h3.7v24.3h-3.7z"/>
					<path id="Fill-5" fill-rule="evenodd" class="s0" d="m66.2 22.2c-1.8 1.9-4.1 2.7-6.7 2.7-2.5 0-4.7-0.9-6.3-2.6-2.4-2.4-2.4-5.1-2.4-9.7 0-4.7 0-7.4 2.4-9.8 1.6-1.7 3.7-2.6 6.3-2.6 5.2 0 8.2 3.4 8.9 7.6h-3.7c-0.6-2.7-2.4-4.3-5.2-4.3-1.4 0-2.7 0.6-3.5 1.5-1.2 1.3-1.5 2.7-1.5 7.6 0 4.9 0.3 6.3 1.5 7.6 0.8 0.9 2.1 1.4 3.5 1.4 1.6 0 3.1-0.6 4-1.7 0.9-1 1.2-2.2 1.2-3.8v-1.4h-5.2v-3.1h8.9v3.7c0 3.1-0.6 5.2-2.2 6.9z"/>
					<path id="Fill-7" class="s0" d="m86.3 24.7v-10.6h-9.9v10.6h-3.7v-24.3h3.7v10.4h9.9v-10.4h3.7v24.3h-3.7"/>
					<path id="Fill-8" class="s0" d="m103.3 3.7v21h-3.6v-21h-6.7v-3.3h17v3.3h-6.7"/>
					<path id="Fill-10" fill-rule="evenodd" class="s0" d="m119.7 24.9c-3.6 0-6.3-0.8-8.6-3.2l2.5-2.4c1.7 1.8 3.7 2.3 6.2 2.3 3.2 0 5-1.3 5-3.7 0-1.1-0.3-1.9-0.9-2.5-0.7-0.6-1.3-0.8-2.7-1.1l-2.9-0.4c-2-0.2-3.5-0.9-4.6-1.9q-1.8-1.7-1.8-4.7c0-4.2 3.1-7.1 8.2-7.1 3.2 0 5.4 0.8 7.5 2.8l-2.3 2.3c-1.5-1.4-3.3-1.9-5.3-1.9-2.9 0-4.5 1.7-4.5 3.8 0 0.9 0.3 1.7 0.9 2.3 0.7 0.5 1.6 0.9 2.8 1.1l2.7 0.4c2.3 0.3 3.6 0.9 4.6 1.8 1.3 1.2 2 2.9 2 5 0 4.5-3.7 7.1-8.8 7.1z"/>
					<path id="Fill-12" fill-rule="evenodd" class="s0" d="m141.1 15.2h-5.5v9.5h-3.7v-24.3h9.2c4.8 0 7.8 3.1 7.8 7.4 0 4.2-3 7.4-7.8 7.4zm-0.2-11.5h-5.3v8.1h5.3c2.6 0 4.3-1.5 4.3-4 0-2.6-1.7-4.1-4.3-4.1z"/>
					<g id="Fill-14">
						<path id="path-2" fill-rule="evenodd" class="s1" d="m174.9 12.5c0 6.8-5.4 12.2-12.1 12.2-6.8 0-12.2-5.4-12.2-12.2 0-6.7 5.4-12.1 12.2-12.1 6.7 0 12.1 5.4 12.1 12.1zm-20.8 0c0 4.8 3.9 8.7 8.7 8.7 4.8 0 8.7-3.9 8.7-8.7 0-4.8-3.9-8.7-8.7-8.7-4.8 0-8.7 3.9-8.7 8.7z"/>
						<path id="path-2" fill-rule="evenodd" class="s2" d="m174.9 12.5c0 6.8-5.4 12.2-12.1 12.2-6.8 0-12.2-5.4-12.2-12.2 0-6.7 5.4-12.1 12.2-12.1 6.7 0 12.1 5.4 12.1 12.1zm-20.8 0c0 4.8 3.9 8.7 8.7 8.7 4.8 0 8.7-3.9 8.7-8.7 0-4.8-3.9-8.7-8.7-8.7-4.8 0-8.7 3.9-8.7 8.7z"/>
					</g>
					<path id="Fill-13" class="s0" d="m184.9 3.8v21h-3.6v-21h-6.7v-3.3h17v3.3h-6.7"/>
					<path id="®" fill-rule="evenodd" class="s0" d="m199.7 3.4q0 1.2-0.8 2.1-0.9 0.8-2.1 0.8-1.2 0-2.1-0.8-0.8-0.9-0.8-2.1 0-1.2 0.8-2 0.9-0.9 2.1-0.9 1.2 0 2.1 0.9 0.8 0.8 0.8 2zm-2.9-2.5q-1 0-1.8 0.7-0.7 0.8-0.7 1.8 0 1.1 0.7 1.8 0.8 0.7 1.8 0.7 1 0 1.8-0.7 0.7-0.7 0.7-1.8 0-1-0.7-1.8-0.8-0.7-1.8-0.7zm-0.1 0.9q0.6 0 0.9 0.1 0.5 0.2 0.5 0.8 0 0.5-0.3 0.7-0.2 0.1-0.5 0.1 0.4 0.1 0.6 0.3 0.2 0.3 0.2 0.5v0.3q0 0.1 0 0.2 0 0.1 0 0.2h-0.5q0 0 0-0.1v-0.1-0.2q0-0.6-0.3-0.7-0.2-0.2-0.7-0.2h-0.4v1.3h-0.6v-3.2zm0.8 1q0-0.4-0.2-0.5-0.2-0.1-0.6-0.1h-0.5v1.2h0.5q0.3 0 0.5-0.1 0.3-0.1 0.3-0.5z"/>
				</g>
			</g>
		</g>
	</g>
</svg>